<svg width="93" height="92.66299999999998" xmlns="http://www.w3.org/2000/svg" xmlns:svg="http://www.w3.org/2000/svg">
 <g>
  <title>Layer 1</title>
  <g id="svg_1">
   <g id="svg_2">
    <g id="svg_3">
     <path fill="#A566A7" d="m72.13,22.333c-3.752,1.064 -7.46799,0.549 -11.15,-1.544c-3.682,-2.095 -6.024,-5.024 -7.031,-8.796c-0.766,-2.875 -0.614,-5.749 0.45,-8.617l-5.94,-3.376c-1.682,4.209 -1.855,8.664 -0.524,13.358c1.58,5.6 4.9,9.8 10,12.7c5.082,2.9 10.5,3.6 16.1,2.116c4.66499,-1.218 8.381,-3.642 11.14,-7.261l-5.943,-3.378c-1.842,2.365 -4.232,3.965 -7.132,4.798l0.03,0z" id="svg_4"/>
     <path fill="#A566A7" d="m63.324,5.307c-1.527,2.688 -0.587,6.1 2.1,7.635c2.685,1.5 6.1,0.6 7.63,-2.101c1.529,-2.688 0.591,-6.103 -2.097,-7.631c-2.686,-1.51 -6.057,-0.61 -7.657,2.097l0.024,0z" id="svg_5"/>
    </g>
    <g id="svg_6">
     <path fill="#6CB947" d="m54.447,80.589c0.95,-3.784 3.251,-6.74599 6.902,-8.895s7.359,-2.717 11.127,-1.708c2.877,0.8 5.3,2.3 7.2,4.685l5.889,-3.464c-2.81001,-3.554 -6.583,-5.932 -11.317,-7.117c-5.607,-1.401 -10.952,-0.613 -16.023,2.4c-5.041,2.96301 -8.332,7.271 -9.879,12.925c-1.27,4.654 -1.024,9.1 0.7,13.278l5.891,-3.466c-1.023,-2.92699 -1.237,-5.727 -0.537,-8.638l0.047,0z" id="svg_7"/>
     <path fill="#6CB947" d="m71.877,79.282c-1.463,-2.49 -4.671,-3.32 -7.158,-1.85799c-2.491,1.466 -3.325,4.672 -1.858,7.2c1.462,2.5 4.7,3.3 7.2,1.856c2.451,-1.48 3.23901,-4.68 1.839,-7.19801l-0.023,0z" id="svg_8"/>
    </g>
    <g id="svg_9">
     <path fill="#E84D30" d="m38.672,12.106c-0.949,3.783 -3.252,6.747 -6.9,8.893c-3.651,2.149 -7.363,2.72 -11.13,1.7c-2.874,-0.771 -5.288,-2.336 -7.244,-4.685l-5.89,3.461c2.809,3.6 6.6,5.9 11.3,7.115c5.606,1.4 10.9,0.6 16.024,-2.366c5.036,-2.965 8.33,-7.271 9.872,-12.927c1.296,-4.597 1.096,-9.097 -0.704,-13.267l-5.893,3.465c1.098,2.805 1.293,5.705 0.593,8.611l-0.028,0z" id="svg_10"/>
     <path fill="#E84D30" d="m21.24,13.41c1.467,2.5 4.7,3.3 7.2,1.859c2.488,-1.464 3.322,-4.675 1.854,-7.163c-1.464,-2.493 -4.668,-3.325 -7.16,-1.858c-2.525,1.452 -3.334,4.652 -1.934,7.162l0.04,0z" id="svg_11"/>
    </g>
    <g id="svg_12">
     <path fill="#00BEF4" d="m80.236,56.384c-2.777,-2.741 -4.163,-6.231 -4.159,-10.463c0.008,-4.238 1.39999,-7.722 4.184,-10.454c2.121,-2.084 4.696,-3.372 7.713,-3.864l0.008,-6.83c-4.491,0.616 -8.44901,2.66 -11.87901,6.136c-4.057,4.119 -6.091,9.12 -6.099,15c-0.006,5.8 2,10.9 6.1,15.076c3.36201,3.5 7.3,5.5 11.8,6.107l0.008,-6.834c-2.98901,-0.458 -5.512,-1.758 -7.71201,-3.874l0.036,0l0.00002,0z" id="svg_13"/>
     <path fill="#00BEF4" d="m87.963,40.701c-2.89,-0.001 -5.23,2.338 -5.238,5.228c-0.002,2.9 2.3,5.2 5.2,5.2c2.891,0 5.23299,-2.335 5.239,-5.224c0.029,-2.905 -2.264,-5.205 -5.164,-5.204l-0.037,0z" id="svg_14"/>
    </g>
    <g id="svg_15">
     <path fill="#F59D2D" d="m13.111,36.081c2.777,2.7 4.2,6.2 4.2,10.463c-0.007,4.234 -1.397,7.72 -4.181,10.4c-2.127,2.089 -4.697,3.376 -7.713,3.867l-0.01,6.831c4.489,-0.614 8.448,-2.659 11.878,-6.138c4.056,-4.116 6.09,-9.12 6.099,-15.004c0.005,-5.849 -2.032,-10.872 -6.121,-15.074c-3.363,-3.461 -7.301,-5.491 -11.807,-6.111l-0.048,6.885c3.017,0.5 5.592,1.8 7.692,3.881l0.011,0z" id="svg_16"/>
     <path fill="#F59D2D" d="m5.383,51.76c2.891,0 5.235,-2.336 5.239,-5.226c0.006,-2.891 -2.337,-5.234 -5.226,-5.235c-2.891,-0.007 -5.234,2.333 -5.239,5.224c-0.003,2.877 2.343,5.277 5.243,5.237l-0.017,0z" id="svg_17"/>
    </g>
    <g id="svg_18">
     <path fill="#ABCD3B" d="m30.581,84.822c1.429,-2.513 0.55,-5.709 -1.96,-7.138c-2.512,-1.429 -5.705,-0.55 -7.136,2c-1.429,2.511 -0.549,5.7 2,7.134c2.475,1.382 5.715,0.482 7.115,-1.996l-0.019,0z" id="svg_19"/>
     <path fill="#ABCD3B" d="m20.757,70.36c3.754,-1.062 7.468,-0.548 11.2,1.549c3.684,2.10001 6,5 7,8.8c0.768,2.9 0.6,5.745 -0.448,8.614l5.942,3.377c1.678,-4.207 1.856,-8.658 0.521,-13.35799c-1.578,-5.564 -4.923,-9.79601 -10.041,-12.705c-5.085,-2.895 -10.46,-3.597 -16.133,-2.115c-4.668,1.21799 -8.379,3.639 -11.14,7.256l5.939,3.4c1.905,-2.378 4.303,-3.978 7.203,-4.818l-0.043,0l0,-0.00001z" id="svg_20"/>
    </g>
   </g>
  </g>
 </g>
</svg>