<svg xmlns="http://www.w3.org/2000/svg" xmlns:xlink="http://www.w3.org/1999/xlink" version="1.1" x="0px" y="0px" width="270px" height="92.663px" viewBox="0 0 270 92.663" enable-background="new 0 0 270 92.663" xml:space="preserve"><g><path fill="#00BEF4" d="M128.777 30.495h-2.74l-3.096-10.21l-3.098 10.21h-2.739l-4.491-16.827h3.427l2.6 10.611l3.071-10.611 h2.458l3.073 10.611l2.622-10.611h3.428L128.777 30.495z"></path><path fill="#00BEF4" d="M144.152 28.793c-1.18 1.181-2.622 1.842-4.537 1.842c-1.912 0-3.377-0.661-4.56-1.842 c-1.702-1.702-1.655-3.807-1.655-6.712c0-2.907-0.047-5.011 1.655-6.712c1.183-1.182 2.647-1.843 4.56-1.843 c1.915 0 3.4 0.7 4.5 1.843c1.703 1.7 1.7 3.8 1.7 6.712C145.832 25 145.9 27.1 144.2 28.793z M141.72 17.354c-0.473-0.543-1.206-0.898-2.104-0.898c-0.897 0-1.654 0.355-2.124 0.898c-0.64 0.71-0.806 1.489-0.806 4.7 s0.166 4 0.8 4.726c0.47 0.5 1.2 0.9 2.1 0.898c0.898 0 1.632-0.354 2.104-0.898 c0.638-0.708 0.827-1.488 0.827-4.726S142.357 18.1 141.7 17.354z"></path><path fill="#00BEF4" d="M156.93 30.495l-3.283-6.712h-2.363v6.712h-3.285V13.668h6.593c3.427 0 5.5 2.3 5.5 5.2 c0 2.363-1.441 3.829-3.07 4.42l3.756 7.256H156.93z M154.379 16.599h-3.096v4.442h3.096c1.441 0 2.386-0.922 2.386-2.222 C156.765 17.5 155.8 16.6 154.4 16.599z"></path><path fill="#00BEF4" d="M162.744 30.495V13.668h3.285v13.896h6.902v2.932H162.744z"></path><path fill="#00BEF4" d="M185.177 28.887c-1.11 1.111-2.694 1.608-4.444 1.608h-6.072V13.668h6.072c1.75 0 3.3 0.5 4.4 1.6 c1.891 1.9 1.7 4.2 1.7 6.735C186.878 24.5 187.1 27 185.2 28.887z M182.884 17.6 c-0.567-0.686-1.323-1.039-2.458-1.039h-2.48v10.965h2.48c1.135 0 1.891-0.354 2.458-1.04c0.616-0.755 0.71-1.962 0.71-4.514 S183.5 18.4 182.9 17.638z"></path><path fill="#00BEF4" d="M123.413 53.281v-7.042h-5.695v7.042h-3.284V36.457h3.284v6.876h5.695v-6.876h3.285v16.824H123.413z"></path><path fill="#00BEF4" d="M135.363 53.424c-3.452 0-6.191-2.34-6.191-5.907v-11.06h3.284v10.94c0 1.9 1.1 3.1 2.9 3.1 c1.772 0 2.931-1.157 2.931-3.096v-10.94h3.259v11.06C141.553 51.1 138.8 53.4 135.4 53.424z"></path><path fill="#00BEF4" d="M155.986 53.281v-9.807l-3.216 6.381h-2.221l-3.237-6.381v9.807h-3.285V36.457h3.238l4.396 9.1 l4.37-9.097h3.238v16.824H155.986z"></path><path fill="#00BEF4" d="M171.575 53.281l-0.992-2.977h-5.979l-1.017 2.977h-3.428l6.122-16.824h2.576l6.142 16.824H171.575z M167.65 41.418l-2.126 6.121h4.184L167.65 41.418z"></path><path fill="#00BEF4" d="M185.84 53.281l-6.666-10.326v10.326h-3.285V36.457h2.931l6.665 10.304V36.457h3.283v16.824H185.84z"></path><path fill="#00BEF4" d="M191.502 53.281V36.457h3.285v16.824H191.502z"></path><path fill="#00BEF4" d="M203.947 39.386v13.896h-3.283V39.386h-4.396v-2.929h12.075v2.929H203.947z"></path><path fill="#00BEF4" d="M217.978 53.281l-0.991-2.977h-5.98l-1.016 2.977h-3.427l6.12-16.824h2.576l6.144 16.824H217.978z M214.055 41.418l-2.127 6.121h4.184L214.055 41.418z"></path><path fill="#00BEF4" d="M231.707 53.281l-3.283-6.711h-2.363v6.711h-3.285V36.457h6.592c3.428 0 5.5 2.3 5.5 5.2 c0 2.362-1.442 3.828-3.073 4.42l3.759 7.254H231.707z M229.154 39.386h-3.094v4.443h3.094c1.443 0 2.388-0.921 2.388-2.222 C231.542 40.3 230.6 39.4 229.2 39.386z"></path><path fill="#00BEF4" d="M237.041 53.281V36.457h3.283v16.824H237.041z"></path><path fill="#00BEF4" d="M253.109 53.281l-0.992-2.977h-5.98l-1.016 2.977h-3.427l6.12-16.824h2.576l6.144 16.824H253.109z M249.187 41.418l-2.128 6.121h4.184L249.187 41.418z"></path><path fill="#00BEF4" d="M267.375 53.281l-6.665-10.326v10.326h-3.286V36.457h2.932l6.663 10.304V36.457h3.285v16.824H267.375z"></path><path fill="#00BEF4" d="M119.064 76.212c-2.552 0-4.489-0.543-6.143-2.222l2.127-2.126c1.063 1.1 2.5 1.4 4.1 1.4 c1.938 0 2.978-0.733 2.978-2.079c0-0.592-0.164-1.088-0.519-1.418c-0.333-0.308-0.71-0.473-1.489-0.592l-2.034-0.284 c-1.441-0.211-2.505-0.661-3.26-1.394c-0.804-0.802-1.206-1.89-1.206-3.308c0-3.002 2.223-5.104 5.86-5.104 c2.316 0 4 0.6 5.4 1.961L122.8 63.12c-1.065-1.017-2.341-1.158-3.45-1.158c-1.749 0-2.6 0.968-2.6 2.1 c0 0.4 0.1 0.9 0.5 1.205c0.33 0.3 0.9 0.6 1.6 0.662l1.983 0.282c1.536 0.2 2.5 0.6 3.2 1.3 c0.897 0.9 1.3 2.1 1.3 3.567C125.305 74.4 122.6 76.2 119.1 76.212z"></path><path fill="#00BEF4" d="M133.141 76.212c-3.45 0-6.191-2.339-6.191-5.908v-11.06h3.286v10.941c0 1.9 1.1 3.1 2.9 3.1 c1.773 0 2.932-1.157 2.932-3.096V59.244h3.26v11.06C139.332 73.9 136.6 76.2 133.1 76.212z"></path><path fill="#00BEF4" d="M153.284 76.071v-9.809l-3.216 6.382h-2.221l-3.238-6.382v9.809h-3.285V59.244h3.239l4.396 9.1 l4.371-9.099h3.237v16.827H153.284z"></path><path fill="#00BEF4" d="M170.777 76.071v-9.809l-3.214 6.382h-2.221l-3.237-6.382v9.809h-3.286V59.244h3.239l4.395 9.1 l4.371-9.099h3.238v16.827H170.777z"></path><path fill="#00BEF4" d="M176.314 76.071V59.244h3.285v16.827H176.314z"></path><path fill="#00BEF4" d="M188.76 62.175v13.896h-3.284V62.175h-4.396v-2.931h12.074v2.931H188.76z"></path><g><g><path fill="#A566A7" d="M72.13 22.333c-3.752 1.064-7.468 0.549-11.15-1.544c-3.682-2.095-6.024-5.024-7.031-8.796 c-0.766-2.875-0.614-5.749 0.45-8.617L48.459 0c-1.682 4.209-1.855 8.664-0.524 13.358c1.58 5.6 4.9 9.8 10 12.7 c5.082 2.9 10.5 3.6 16.1 2.116c4.665-1.218 8.381-3.642 11.14-7.261l-5.943-3.378 C77.39 19.9 75 21.5 72.1 22.333z"></path><path fill="#A566A7" d="M63.324 5.307c-1.527 2.688-0.587 6.1 2.1 7.635c2.685 1.5 6.1 0.6 7.63-2.101 c1.529-2.688 0.591-6.103-2.097-7.631C68.271 1.7 64.9 2.6 63.3 5.307z"></path></g><g><path fill="#6CB947" d="M54.447 80.589c0.95-3.784 3.251-6.746 6.902-8.895s7.359-2.717 11.127-1.708 c2.877 0.8 5.3 2.3 7.2 4.685l5.889-3.464c-2.81-3.554-6.583-5.932-11.317-7.117c-5.607-1.401-10.952-0.613-16.023 2.4 c-5.041 2.963-8.332 7.271-9.879 12.925c-1.27 4.654-1.024 9.1 0.7 13.278l5.891-3.466 C53.914 86.3 53.7 83.5 54.4 80.589z"></path><path fill="#6CB947" d="M71.877 79.282c-1.463-2.49-4.671-3.32-7.158-1.858c-2.491 1.466-3.325 4.672-1.858 7.2 c1.462 2.5 4.7 3.3 7.2 1.856C72.512 85 73.3 81.8 71.9 79.282z"></path></g><g><path fill="#E84D30" d="M38.672 12.106c-0.949 3.783-3.252 6.747-6.9 8.893c-3.651 2.149-7.363 2.72-11.13 1.7 c-2.874-0.771-5.288-2.336-7.244-4.685l-5.89 3.461c2.809 3.6 6.6 5.9 11.3 7.115c5.606 1.4 10.9 0.6 16.024-2.366 c5.036-2.965 8.33-7.271 9.872-12.927C46 8.7 45.8 4.2 44 0.03l-5.893 3.465C39.205 6.3 39.4 9.2 38.7 12.106z"></path><path fill="#E84D30" d="M21.24 13.41c1.467 2.5 4.7 3.3 7.2 1.859c2.488-1.464 3.322-4.675 1.854-7.163 c-1.464-2.493-4.668-3.325-7.16-1.858C20.609 7.7 19.8 10.9 21.2 13.41z"></path></g><g><path fill="#00BEF4" d="M80.236 56.384c-2.777-2.741-4.163-6.231-4.159-10.463c0.008-4.238 1.4-7.722 4.184-10.454 c2.121-2.084 4.696-3.372 7.713-3.864l0.008-6.83c-4.491 0.616-8.449 2.66-11.879 6.136c-4.057 4.119-6.091 9.12-6.099 15 c-0.006 5.8 2 10.9 6.1 15.076c3.362 3.5 7.3 5.5 11.8 6.107l0.008-6.834 C84.923 59.8 82.4 58.5 80.2 56.384z"></path><path fill="#00BEF4" d="M87.963 40.701c-2.89-0.001-5.23 2.338-5.238 5.228c-0.002 2.9 2.3 5.2 5.2 5.2 c2.891 0 5.233-2.335 5.239-5.224C93.193 43 90.9 40.7 88 40.701z"></path></g><g><path fill="#F59D2D" d="M13.111 36.081c2.777 2.7 4.2 6.2 4.2 10.463c-0.007 4.234-1.397 7.72-4.181 10.4 c-2.127 2.089-4.697 3.376-7.713 3.867l-0.01 6.831c4.489-0.614 8.448-2.659 11.878-6.138c4.056-4.116 6.09-9.12 6.099-15.004 c0.005-5.849-2.032-10.872-6.121-15.074c-3.363-3.461-7.301-5.491-11.807-6.111L5.408 32.2 C8.425 32.7 11 34 13.1 36.081z"></path><path fill="#F59D2D" d="M5.383 51.76c2.891 0 5.235-2.336 5.239-5.226c0.006-2.891-2.337-5.234-5.226-5.235 c-2.891-0.007-5.234 2.333-5.239 5.224C0.154 49.4 2.5 51.8 5.4 51.76z"></path></g><g><path fill="#ABCD3B" d="M30.581 84.822c1.429-2.513 0.55-5.709-1.96-7.138c-2.512-1.429-5.705-0.55-7.136 2 c-1.429 2.511-0.549 5.7 2 7.134C25.96 88.2 29.2 87.3 30.6 84.822z"></path><path fill="#ABCD3B" d="M20.757 70.36c3.754-1.062 7.468-0.548 11.2 1.549c3.684 2.1 6 5 7 8.8 c0.768 2.9 0.6 5.745-0.448 8.614l5.942 3.377c1.678-4.207 1.856-8.658 0.521-13.358c-1.578-5.564-4.923-9.796-10.041-12.705 c-5.085-2.895-10.46-3.597-16.133-2.115c-4.668 1.218-8.379 3.639-11.14 7.256l5.939 3.4 C15.502 72.8 17.9 71.2 20.8 70.36z"></path></g></g></g></svg>